<?xml version="1.0" encoding="utf-8"?>
<!-- Generator: Adobe Illustrator 18.0.0, SVG Export Plug-In . SVG Version: 6.00 Build 0)  -->
<!DOCTYPE svg PUBLIC "-//W3C//DTD SVG 1.1//EN" "http://www.w3.org/Graphics/SVG/1.1/DTD/svg11.dtd">
<svg version="1.1" id="Layer_1" xmlns="http://www.w3.org/2000/svg" xmlns:xlink="http://www.w3.org/1999/xlink" x="0px" y="0px"
	 viewBox="0 0 64.8 57.3" enable-background="new 0 0 64.8 57.3" xml:space="preserve">
<g>
	<path fill="#F14B5A" d="M62.8,17.3L58,12.2c-0.1-0.1-0.1-0.1-0.2-0.2L57,11.8c-0.1,0-0.2,0.1-0.2,0.1c0.1,0,0.2-0.1,0.2-0.1
		l-0.3-0.1l-5.6,2.5l0,0c0,0-0.3,0.1-0.8,0.3l-17,7l-14.8-6l-1.6-0.6l0,0l-5.5-2.3L11,12.7l-1.5,0.6c-0.1,0-0.1,0.1-0.2,0.1L2,21
		c-0.1,0.1-0.1,0.2-0.1,0.3V24c0,0.2,0.1,0.4,0.3,0.4l7.1,3v12.7c0,0.2,0.1,0.3,0.3,0.4l23.4,12.9c0.1,0,0.1,0.1,0.2,0.1
		c0.1,0,0.1,0,0.2,0l24.5-12.8c0.2-0.1,0.3-0.2,0.3-0.4l0-20l4.2,1.4c0.1,0.1,0.3,0,0.4-0.1c0.1-0.1,0.2-0.2,0.2-0.4v-3.4
		C62.9,17.5,62.9,17.4,62.8,17.3 M6.9,21.5l4.1-4.3l17.6,6.8l-4.2,5L6.9,21.5z M12.9,37.6l0-8.6l3.8,1.6l0,9L12.9,37.6z M30.1,46.6
		l-5.8-3.1l0-9.7l1.1,0.5c0.2,0.1,0.4,0,0.5-0.1l4.2-4.7V46.6z M50.7,39.6c-1.5,0.8-4.6,0.7-5.6-0.7c0,0.7,0,1.3,0,2.3
		c0,0.6,0,1.3-0.9,1.8c-0.6,0.3-1.5,0.6-1.5-0.6c0-6.3,0-12.6,0-19c0-0.9-0.3-0.8-0.3-1c0-0.2,0.6-0.6,1-0.9c1-0.5,1.7-0.2,1.7,0.5
		c0,1.5,0,2.2,0,3.7c0,2,0,4.1,0,6.1c0,1.5,0,2.3,0,3.8v0.5c0.5-1.5,1.6-3.2,2.2-4.7c0.8-1.8,1.8-3.9,3.6-5.1c1.3-0.1,0.3,1.3-0.5,3
		C49.3,32,48,34.4,47,36.9c0.3,1.2,2.8,1.2,4,0.5c0.6-0.4,1.1-0.9,1.5-1.5c0,0,0.1,0.1,0.1,0.1c0.1,0.2,0.3,0.6,0.3,0.9
		c0,0.3,0,0.5,0.1,0.8C52.4,38.4,51.6,39.1,50.7,39.6"/>
	<path fill="#B72C47" d="M30,9.9V20l-11.5-4.6l14.8,6l17-7c-3.1,1.2-14.3,5.8-14.3,5.8V9.2l15,4.9l5.6-2.5L33.3,3.9
		c-0.1,0-0.2,0-0.3,0l-21.5,8.6l5.5,2.3L30,9.9z M33.8,7.8L33.8,7.8L33.8,7.8L33.8,7.8z"/>
</g>
</svg>
